<svg xmlns="http://www.w3.org/2000/svg" viewBox="0 0 175 123.5"><defs><style>.a,.b{fill:none;stroke:#000;stroke-miterlimit:10;}.a{stroke-width:5px;}.b{stroke-width:4.36px;}</style></defs><title>Camera Icon - Photography</title><path class="a" d="M225.4,109H198.158a19.782,19.782,0,0,1-15.761-7.678A27.332,27.332,0,0,0,160.652,90.5h-20.3A27.332,27.332,0,0,0,118.6,101.322,19.782,19.782,0,0,1,102.842,109H75.6a10.129,10.129,0,0,0-10.1,10.1v79.8A10.13,10.13,0,0,0,75.6,209H225.4a10.129,10.129,0,0,0,10.1-10.1V119.1A10.129,10.129,0,0,0,225.4,109Z" transform="translate(-63 -88)"/><circle class="b" cx="86.5" cy="70.5" r="37.5"/><rect x="147" y="31" width="10" height="5"/></svg>