<svg xmlns="http://www.w3.org/2000/svg" viewBox="0 0 254.697 154.697"><defs><style>.a,.b,.d,.e{stroke:#000;stroke-miterlimit:10;}.a{stroke-width:2px;}.b,.d{fill:none;}.b{stroke-width:4.697px;}.c{fill:#fff;}.d{stroke-width:5px;}.e{stroke-width:0.603px;}</style></defs><title>Editing</title><path class="a" d="M70.794,260.567" transform="translate(-22.652 -72.652)"/><path class="a" d="M21.762,211.535" transform="translate(-22.652 -72.652)"/><rect class="b" x="2.348" y="2.348" width="250" height="150" rx="11.273"/><rect x="64.533" y="17.348" width="172.816" height="100"/><polygon class="c" points="188.079 41.076 169.475 71.537 151.09 35.998 128.295 71.45 114.08 40.92 79.941 106.848 221.941 107.147 188.079 41.076"/><circle class="c" cx="87.441" cy="43.348" r="12.5"/><rect class="d" x="13.401" y="11.348" width="44" height="132"/><line class="d" x1="35.401" y1="11.348" x2="35.401" y2="143.348"/><line class="d" x1="57.401" y1="77.348" x2="13.401" y2="77.348"/><line class="d" x1="57.401" y1="110.348" x2="13.401" y2="110.348"/><line class="d" x1="57.401" y1="44.348" x2="13.401" y2="44.348"/><line class="d" x1="57.401" y1="27.848" x2="13.401" y2="27.848"/><line class="d" x1="55.84" y1="60.848" x2="11.84" y2="60.848"/><line class="d" x1="57.401" y1="93.848" x2="13.401" y2="93.848"/><line class="d" x1="56.84" y1="126.848" x2="12.84" y2="126.848"/><polygon points="170.738 133.154 165.357 141.755 158.576 120.721 179.105 127.702 170.738 133.154"/><polygon class="e" points="170.922 131.603 169.215 133.337 175.621 139.94 177.327 138.206 170.922 131.603"/></svg>