<svg xmlns="http://www.w3.org/2000/svg" viewBox="0 0 50.21 50.21"><defs><style>.a,.b{fill:#fff;}.a,.b,.c{stroke:#231f20;stroke-miterlimit:10;}.a{stroke-width:0.21px;}.b,.c{stroke-width:1.46px;}.c{fill:none;}</style></defs><title>Asset 4</title><circle class="a" cx="25.11" cy="25.11" r="25"/><circle class="b" cx="25.07" cy="25.08" r="18.39"/><path class="c" d="M25.07,43.47q.08-18.46,0-36.75"/><line class="c" x1="6.68" y1="25.08" x2="43.46" y2="25.08"/><line class="c" x1="9.14" y1="15.88" x2="41" y2="15.88"/><line class="c" x1="9.14" y1="34.27" x2="41" y2="34.27"/><path class="c" d="M25.84,7.31a.74.74,0,0,1-.44.13.7.7,0,0,1-.33-.07V42.6h.1a.71.71,0,0,1,.61.31c2.24-1.89,8.46-8,8.49-17.75S28.14,9.27,25.84,7.31Z"/><path class="c" d="M24.81,7.16a1,1,0,0,1-.2-.11c-2,1.61-8.71,7.81-8.74,18s6.5,16.24,8.62,18a.68.68,0,0,1,.58-.41V7.37A.67.67,0,0,1,24.81,7.16Z"/></svg>
