<?xml version="1.0" encoding="utf-8"?>
<!-- Generator: Adobe Illustrator 23.1.1, SVG Export Plug-In . SVG Version: 6.00 Build 0)  -->
<svg version="1.1" xmlns="http://www.w3.org/2000/svg" xmlns:xlink="http://www.w3.org/1999/xlink" x="0px" y="0px"
	 viewBox="0 0 50.3 50.3" style="enable-background:new 0 0 50.3 50.3;" xml:space="preserve">
<style type="text/css">
	.st0{fill:#FFFFFF;stroke:#232323;stroke-width:0.35;stroke-miterlimit:10;}
	.st1{display:none;fill:#232323;stroke:#FFFFFF;stroke-width:0.35;stroke-miterlimit:10;}
	.st2{fill:#232323;}
</style>
<g id="Layer_1">
	<title>Asset 3</title>
	<circle class="st0" cx="25.2" cy="25.2" r="25"/>
	<path class="st1" d="M42.5,15.8l-12,6.9l10.2,10.2c1.1-1.3,1.8-3,1.8-4.7V15.8z"/>
	<polygon class="st1" points="8.4,15 25.2,24.6 41.9,15 	"/>
	<path class="st1" d="M29.7,23.2l-4.5,2.6l-4.5-2.6L10.3,33.6c1.3,1.1,3,1.8,4.7,1.8h20.5c1.7,0,3.4-0.6,4.7-1.8L29.7,23.2z"/>
	<path class="st1" d="M7.8,15.8v12.5c0,1.7,0.6,3.4,1.8,4.7l10.2-10.2L7.8,15.8z"/>
</g>
<g id="Layer_2">
	<path class="st2" d="M40.5,20.1c-0.1-6.5-6-15.3-15.3-15.3c-9.3,0-15.3,8.9-15.3,15.3c0,1.8,0.4,3.6,2.6,7.7
		c2.4,4.6,6.3,11,12.8,17.9c6.5-6.9,10.4-13.3,12.8-17.9C40.1,23.7,40.5,21.9,40.5,20.1z M25.2,27.7c-4.2,0-7.7-3.4-7.7-7.7
		s3.4-7.7,7.7-7.7s7.7,3.4,7.7,7.7S29.4,27.7,25.2,27.7z"/>
</g>
</svg>
