<svg xmlns="http://www.w3.org/2000/svg" viewBox="0 0 247.637 276.683"><defs><style>.a{fill:none;stroke:#000;stroke-miterlimit:10;stroke-width:5px;}</style></defs><title>Science Icon - Science</title><ellipse class="a" cx="122.963" cy="138.342" rx="57.001" ry="135.842"/><ellipse class="a" cx="149.755" cy="150.851" rx="57.001" ry="135.842" transform="translate(-81.945 193.459) rotate(-60)"/><path class="a" d="M267.887,82.077c-3.43-5.941-9.222-10.192-16.852-12.82a19.975,19.975,0,0,1-39.651-1.934c-26.1,3.653-57.923,15-89.639,33.313C56.774,138.149,16.864,190.66,32.6,217.923a24.61,24.61,0,0,0,3.084,4.209,19.958,19.958,0,0,1,37.6,11.826c28.379-.418,67-12.388,105.459-34.594C243.719,161.851,283.628,109.34,267.887,82.077Z" transform="translate(-26.181 -11.658)"/><path class="a" d="M251.035,69.257a19.99,19.99,0,1,0-39.716-3.229c0,.437.037.865.065,1.295" transform="translate(-26.181 -11.658)"/><path class="a" d="M211.384,67.323a19.975,19.975,0,0,0,39.651,1.934" transform="translate(-26.181 -11.658)"/><path class="a" d="M35.689,222.132a19.985,19.985,0,1,0,37.6,11.826" transform="translate(-26.181 -11.658)"/><path class="a" d="M73.289,233.958a19.979,19.979,0,0,0-37.6-11.826" transform="translate(-26.181 -11.658)"/><circle class="a" cx="123.573" cy="139.193" r="30"/></svg>